<svg xmlns="http://www.w3.org/2000/svg" width="512" height="512"><path fill="#4f9922" d="M468.9 214.6c-11.42 0-20.67 9.26-20.67 20.7v20.82c-.04 54.34-21.23 105.4-59.67 143.8-38.42 38.38-89.47 59.5-143.76 59.5-.04 0-.08 0-.12 0C132.5 459.37 41.3 368.07 41.36 255.9c.04-54.33 21.23-105.4 59.67-143.8 38.42-38.38 89.47-59.5 143.76-59.5.03 0 .07 0 .1 0 28.68 0 56.5 5.93 82.7 17.6 10.43 4.65 22.65-.04 27.3-10.47 4.65-10.43-.04-22.65-10.47-27.3-31.52-14.04-65-21.17-99.5-21.2-.05 0-.1 0-.14 0-65.34 0-126.78 25.43-173 71.6C25.54 129 .04 190.48 0 255.87-.04 321.26 25.4 382.73 71.6 429c46.2 46.26 107.67 71.76 173.05 71.8.05 0 .1 0 .15 0 65.33 0 126.76-25.43 173-71.6 46.25-46.2 71.75-107.67 71.8-173.07V235.3c0-11.44-9.27-20.7-20.7-20.7zM505.94 39.8c-8.07-8.07-21.17-8.07-29.25 0L244.8 271.7l-52.62-52.6c-8.07-8.08-21.17-8.08-29.24 0-8.08 8.07-8.08 21.16 0 29.24l67.23 67.23c4.04 4.04 9.33 6.06 14.63 6.06 5.3 0 10.58-2.02 14.62-6.06L505.94 69.05c8.08-8.07 8.08-21.17 0-29.25z" class="active-path"/></svg>